<svg width="1200" height="520" viewBox="0 0 1200 520" xmlns="http://www.w3.org/2000/svg">
<defs>
 <linearGradient id="tb" x1="0" y1="0" x2="1" y2="1"><stop stop-color="#0d1117"/><stop offset="1" stop-color="#111827"/></linearGradient>
 <filter id="glow"><feGaussianBlur stdDeviation="2.5" result="b"/><feMerge><feMergeNode in="b"/><feMergeNode in="SourceGraphic"/></feMerge></filter>
</defs>
<rect x="1" y="1" width="1198" height="518" rx="18" fill="url(#tb)" stroke="#30363d"/>
<rect x="1" y="1" width="1198" height="48" rx="18" fill="#161b22"/>
<rect x="1" y="32" width="1198" height="17" fill="#161b22"/>
<circle cx="26" cy="25" r="6" fill="#ff5f56"/><circle cx="48" cy="25" r="6" fill="#ffbd2e"/><circle cx="70" cy="25" r="6" fill="#27c93f"/>
<text x="600" y="30" text-anchor="middle" fill="#8b949e" font-family="monospace" font-size="13">carlos@engineering: ~/profile</text>

<g font-family="monospace" font-size="19">
 <text x="40" y="90" fill="#7ee787">$</text>
 <text x="65" y="90" fill="#c9d1d9">whoami</text>

 <g opacity="0"><animate attributeName="opacity" values="0;0;1;1" keyTimes="0;0.08;0.12;1" dur="9s" repeatCount="indefinite"/>
  <text x="40" y="128" fill="#58a6ff">José Carlos Malacara Espinosa</text>
 </g>

 <g opacity="0"><animate attributeName="opacity" values="0;0;1;1" keyTimes="0;0.18;0.22;1" dur="9s" repeatCount="indefinite"/>
  <text x="40" y="170" fill="#7ee787">$</text><text x="65" y="170" fill="#c9d1d9">cat roles.txt</text>
  <text x="40" y="206" fill="#a5d6ff">Python Developer</text>
  <text x="255" y="206" fill="#d2a8ff">Mechatronics Engineer</text>
  <text x="520" y="206" fill="#ffa657">Technical Consultant</text>
  <text x="790" y="206" fill="#7ee787">Educator</text>
  <text x="920" y="206" fill="#f2cc60">Researcher</text>
 </g>

 <g opacity="0"><animate attributeName="opacity" values="0;0;1;1" keyTimes="0;0.34;0.38;1" dur="9s" repeatCount="indefinite"/>
  <text x="40" y="250" fill="#7ee787">$</text><text x="65" y="250" fill="#c9d1d9">cat focus.json</text>
  <text x="40" y="286" fill="#8b949e">{</text>
  <text x="70" y="320" fill="#79c0ff">"AI"</text><text x="125" y="320" fill="#c9d1d9">:</text><text x="145" y="320" fill="#a5d6ff">"Applied Artificial Intelligence"</text><text x="470" y="320" fill="#8b949e">,</text>
  <text x="70" y="352" fill="#79c0ff">"CV"</text><text x="125" y="352" fill="#c9d1d9">:</text><text x="145" y="352" fill="#d2a8ff">"Computer Vision"</text><text x="325" y="352" fill="#8b949e">,</text>
  <text x="70" y="384" fill="#79c0ff">"Automation"</text><text x="210" y="384" fill="#c9d1d9">:</text><text x="230" y="384" fill="#ffa657">"Intelligent Systems"</text><text x="455" y="384" fill="#8b949e">,</text>
  <text x="70" y="416" fill="#79c0ff">"Industry"</text><text x="190" y="416" fill="#c9d1d9">:</text><text x="210" y="416" fill="#7ee787">"Smart Manufacturing"</text>
  <text x="40" y="448" fill="#8b949e">}</text>
 </g>

 <g opacity="0"><animate attributeName="opacity" values="0;0;1;1" keyTimes="0;0.62;0.66;1" dur="9s" repeatCount="indefinite"/>
  <text x="40" y="488" fill="#7ee787">$</text><text x="65" y="488" fill="#c9d1d9">echo</text><text x="120" y="488" fill="#f2cc60">"Build useful technology. Keep learning."</text>
 </g>
 <rect x="560" y="472" width="10" height="20" fill="#58a6ff"><animate attributeName="opacity" values="1;0;1" dur=".8s" repeatCount="indefinite"/></rect>
</g>
</svg>